<svg xmlns="http://www.w3.org/2000/svg" viewBox="0 0 400 400" width="50" height="50">
  <path fill="currentColor" d="M282.092 1.449 C 280.136 5.103,275.000 24.151,275.000 27.750 C 275.000 29.907,274.335 34.126,273.523 37.125 C 272.711 40.124,271.802 44.304,271.503 46.413 L 270.961 50.248 266.920 46.023 C 257.357 36.023,238.715 24.016,226.563 20.029 C 211.338 15.033,194.082 14.159,192.492 18.302 C 190.816 22.670,221.217 68.281,238.142 86.791 C 246.421 95.847,249.965 102.567,252.348 113.728 C 255.250 127.322,255.248 127.492,252.178 130.953 C 246.906 136.893,241.494 152.301,241.421 161.578 C 241.395 164.829,236.498 175.275,233.448 178.584 C 231.809 180.361,230.469 182.215,230.469 182.705 C 230.469 183.194,229.941 183.594,229.297 183.594 C 228.652 183.594,228.125 184.083,228.125 184.681 C 228.125 185.279,226.719 186.331,225.000 187.018 C 223.281 187.706,221.875 188.634,221.875 189.081 C 221.875 189.527,221.260 190.126,220.508 190.410 C 219.756 190.695,218.727 191.337,218.221 191.836 C 216.482 193.552,208.176 194.689,204.537 193.710 C 200.433 192.604,193.970 193.152,175.568 196.164 C 167.932 197.415,160.623 198.437,159.326 198.438 C 158.030 198.438,155.665 199.092,154.070 199.892 C 152.476 200.692,146.602 202.841,141.016 204.669 C 135.430 206.496,130.493 208.446,130.045 209.002 C 129.597 209.557,127.098 210.878,124.493 211.937 C 121.887 212.996,116.102 216.317,111.636 219.318 C 107.170 222.319,100.967 225.759,97.852 226.964 C 93.340 228.707,92.184 229.486,92.171 230.787 C 92.159 231.870,90.674 233.477,87.773 235.547 C 85.364 237.266,82.882 239.445,82.257 240.390 C 81.633 241.335,79.832 242.894,78.256 243.854 C 75.800 245.349,75.614 245.647,76.953 245.942 C 78.227 246.222,76.858 247.851,69.531 254.773 C 62.785 261.146,60.812 263.434,61.611 263.957 C 62.771 264.716,56.867 274.365,52.044 279.592 C 50.431 281.340,49.940 282.351,50.589 282.588 C 51.248 282.828,50.544 284.407,48.441 287.405 C 45.080 292.196,44.636 293.396,46.484 292.686 C 47.996 292.106,48.034 291.916,45.381 298.160 C 44.130 301.106,42.851 304.922,42.540 306.641 C 42.228 308.359,41.317 311.454,40.513 313.517 C 39.686 315.642,39.257 318.080,39.522 319.138 C 39.780 320.167,39.241 325.240,38.323 330.413 C 37.405 335.586,36.680 341.143,36.711 342.761 C 36.939 354.510,35.600 362.976,33.072 365.770 C 32.415 366.495,32.103 367.453,32.378 367.897 C 32.653 368.342,32.255 369.656,31.494 370.817 C 30.483 372.361,30.369 373.014,31.071 373.248 C 31.600 373.424,32.031 374.868,32.031 376.462 C 32.031 383.846,44.816 395.312,53.049 395.313 C 54.331 395.313,56.630 396.050,58.158 396.952 C 59.687 397.854,60.938 398.239,60.938 397.808 C 60.937 396.787,68.920 397.400,76.545 399.006 C 83.875 400.549,127.667 399.859,138.865 398.023 C 142.626 397.407,147.813 396.888,150.391 396.870 C 159.573 396.805,166.712 393.835,170.098 388.670 C 171.294 386.846,172.583 385.979,174.684 385.585 C 184.534 383.737,188.281 380.603,188.281 374.216 C 188.281 370.844,185.046 365.625,182.956 365.625 C 180.021 365.625,178.845 364.100,180.194 362.042 C 181.095 360.667,181.729 360.323,182.304 360.897 C 183.547 362.140,184.035 361.914,185.085 359.611 C 185.795 358.052,186.212 357.773,186.685 358.539 C 187.425 359.737,189.063 358.995,189.063 357.463 C 189.063 356.891,189.558 356.472,190.163 356.532 C 190.768 356.592,192.091 355.425,193.102 353.939 C 194.518 351.857,196.885 350.336,203.410 347.312 L 211.879 343.388 213.557 345.393 C 214.479 346.496,217.520 350.336,220.313 353.926 C 223.105 357.516,228.147 363.287,231.516 366.750 C 234.885 370.213,237.979 373.673,238.393 374.439 C 238.806 375.205,239.626 375.732,240.216 375.611 C 240.805 375.490,243.100 377.966,245.315 381.114 C 247.582 384.335,249.764 386.677,250.305 386.469 C 250.834 386.266,252.244 387.645,253.439 389.534 C 255.708 393.120,257.031 393.897,257.031 391.644 C 257.031 390.644,257.686 390.953,259.698 392.903 C 261.165 394.325,262.749 395.251,263.219 394.960 C 263.689 394.670,265.178 395.219,266.528 396.181 C 267.879 397.142,270.250 398.019,271.797 398.128 C 273.344 398.238,278.293 398.728,282.796 399.217 C 292.496 400.271,294.797 399.943,299.324 396.857 C 301.200 395.579,305.065 393.827,307.913 392.965 C 313.440 391.291,319.531 386.039,319.531 382.947 C 319.531 380.693,314.963 374.909,312.426 373.952 C 311.177 373.480,310.156 372.645,310.156 372.094 C 310.156 371.544,309.277 371.094,308.203 371.094 C 307.129 371.094,306.250 370.735,306.250 370.296 C 306.250 369.857,305.371 369.097,304.297 368.608 C 303.223 368.118,302.344 367.251,302.344 366.681 C 302.344 366.111,299.883 364.405,296.875 362.891 C 292.326 360.600,291.406 359.812,291.406 358.209 C 291.406 356.746,290.651 355.896,288.266 354.680 C 285.692 353.367,285.258 352.832,285.856 351.714 C 286.315 350.857,286.301 349.840,285.818 348.977 C 285.395 348.222,284.879 345.458,284.671 342.836 C 284.464 340.213,283.790 336.621,283.174 334.854 C 281.349 329.617,282.066 324.249,284.598 324.201 C 288.611 324.124,307.031 301.900,307.031 297.134 C 307.031 296.595,307.762 295.474,308.654 294.642 C 309.722 293.648,311.575 288.685,314.068 280.138 C 316.152 272.993,318.821 265.486,319.998 263.456 C 326.480 252.277,326.875 250.502,324.090 245.086 C 322.058 241.133,321.734 230.908,323.374 222.455 C 324.608 216.092,326.096 214.597,334.796 210.975 C 340.460 208.617,341.564 207.707,354.738 194.545 C 371.716 177.582,371.132 179.160,364.973 166.909 C 362.350 161.691,357.759 151.445,354.772 144.141 C 345.170 120.667,338.734 113.853,319.347 106.641 C 313.912 104.619,313.757 104.249,315.178 96.666 C 316.770 88.170,316.796 69.447,315.226 62.500 C 314.594 59.707,313.375 52.181,312.517 45.776 C 311.639 39.221,310.440 33.341,309.775 32.327 C 309.125 31.335,308.594 29.735,308.594 28.770 C 308.594 26.800,301.606 12.651,298.764 8.869 C 294.757 3.534,283.627 -1.419,282.092 1.449" />
</svg>